<svg width="358" height="416" viewBox="0 0 358 416" fill="none" xmlns="http://www.w3.org/2000/svg">
<rect x="114.84" y="1.65912" width="242.786" height="413.352" fill="url(#paint0_linear_1_38)"/>
<path d="M332.071 1.65906L357.252 23.0782M273.442 1.65906C320.043 50.8856 336.205 57.6494 357.252 74.1835M212.932 1.65906C261.614 59.5613 292.945 87.1137 357.252 126.04M153.551 1.65906C209.174 97.8574 288.85 141.447 357.252 186.916M115.592 1.65906C165.753 119.874 214.292 176.966 357.252 253.428M46.439 1.65906C50.6437 38.8612 184.271 288.886 357.252 326.704M357.252 385.701C182.341 353.566 117.046 255.78 1.3394 133.932" stroke="#FAFAFA" stroke-width="2"/>
<defs>
<linearGradient id="paint0_linear_1_38" x1="357.626" y1="415.011" x2="140.205" y2="339.434" gradientUnits="userSpaceOnUse">
<stop stop-color="#06B6D4"/>
<stop offset="0.0001" stop-color="#0E7490"/>
<stop offset="1" stop-color="#0284C7"/>
</linearGradient>
</defs>
</svg>
