<svg width="104" height="33" viewBox="0 0 104 33" fill="none" xmlns="http://www.w3.org/2000/svg">
<path d="M30.5261 23.321C30.3645 22.9308 30.2131 22.5206 30.0515 22.1704L29.3042 20.4994L29.2739 20.4694C27.0524 15.6666 24.6793 10.7838 22.1649 5.98099L22.0639 5.78087C21.8115 5.3106 21.559 4.7903 21.2965 4.31002C20.9734 3.73969 20.6603 3.12933 20.1453 2.549C19.6433 1.94178 19.0115 1.45255 18.2956 1.11662C17.5796 0.780697 16.7973 0.606445 16.0051 0.606445C15.2129 0.606445 14.4306 0.780697 13.7147 1.11662C12.9987 1.45255 12.3669 1.94178 11.8649 2.549C11.3903 3.12933 11.0369 3.73969 10.7137 4.31002C10.4613 4.83032 10.2088 5.34062 9.94629 5.81089L9.84531 6.011C7.37129 10.8138 4.95786 15.6966 2.73629 20.4994L2.6757 20.5594C2.45355 21.0797 2.191 21.62 1.93855 22.2004C1.77698 22.5506 1.61541 22.9308 1.45384 23.351C1.01764 24.4515 0.878346 25.6455 1.04969 26.8155C1.22103 27.9855 1.6971 29.0911 2.43097 30.0233C3.16484 30.9555 4.13119 31.6821 5.23477 32.1316C6.33836 32.581 7.54109 32.7378 8.72443 32.5864C9.85891 32.4384 10.9513 32.064 11.9356 31.4858C13.2483 30.7553 14.5106 29.6947 15.9243 28.1638C17.3381 29.6947 18.6306 30.7553 19.9131 31.4958C21.1463 32.213 22.5429 32.6089 23.9725 32.6464C25.6279 32.6532 27.2299 32.0664 28.4827 30.9942C29.7356 29.922 30.5546 28.4369 30.7886 26.813C31.0591 25.6461 30.9676 24.4255 30.5261 23.311V23.321ZM16.0253 24.982C14.2884 22.7807 13.1575 20.7595 12.7737 19.0285C12.6148 18.3871 12.5805 17.7215 12.6728 17.0674C12.7434 16.5571 12.9353 16.1068 13.1979 15.7266C13.8037 14.8561 14.864 14.3158 16.0253 14.3158C16.5768 14.2991 17.1238 14.4184 17.6173 14.6629C18.1108 14.9074 18.5353 15.2694 18.8528 15.7166C19.1153 16.1169 19.3072 16.5571 19.3678 17.0674C19.4687 17.6477 19.4284 18.3181 19.2668 19.0285C18.8831 20.7295 17.7521 22.7707 16.0253 24.982ZM28.8902 26.4628C28.7755 27.2873 28.4447 28.0675 27.9309 28.7258C27.4171 29.3842 26.7382 29.8976 25.9618 30.215C25.1943 30.5352 24.3461 30.6253 23.5181 30.5352C22.7102 30.4351 21.9024 30.175 21.0743 29.6947C19.6995 28.8527 18.4632 27.8066 17.4087 26.5929C19.5293 23.9914 20.8118 21.62 21.2965 19.5088C21.5287 18.5082 21.559 17.6077 21.4581 16.7772C21.332 15.9901 21.0357 15.2392 20.5896 14.576C20.0803 13.8568 19.4004 13.2727 18.6098 12.8749C17.8192 12.4771 16.9421 12.2778 16.0556 12.2946C14.1875 12.2946 12.5213 13.1551 11.5115 14.566C11.0569 15.2275 10.7631 15.9844 10.6532 16.7772C10.5219 17.6177 10.5522 18.5483 10.8147 19.5088C11.2994 21.62 12.6122 24.0214 14.7025 26.6129C13.6659 27.8498 12.4267 28.9051 11.0369 29.7347C10.1987 30.215 9.401 30.4652 8.59315 30.5652C7.33684 30.7247 6.06779 30.3864 5.06183 29.6238C4.05588 28.8612 3.39433 27.7361 3.221 26.4929C3.12002 25.6924 3.1907 24.8919 3.51384 23.9914C3.61482 23.6712 3.76629 23.351 3.92786 22.9708C4.15002 22.4505 4.41257 21.9102 4.66502 21.3699L4.70541 21.2999C6.88659 16.5271 9.26972 11.6543 11.7437 6.88151L11.8447 6.68139C12.0972 6.20111 12.3496 5.69082 12.6122 5.21054C12.8747 4.70024 13.1575 4.20996 13.521 3.80973C13.8357 3.43753 14.2288 3.13821 14.6729 2.93284C15.1169 2.72746 15.6009 2.62103 16.0909 2.62103C16.581 2.62103 17.065 2.72746 17.509 2.93284C17.953 3.13821 18.3462 3.43753 18.6609 3.80973C19.0143 4.20996 19.3072 4.70024 19.5697 5.21054C19.8222 5.69082 20.0746 6.21112 20.3372 6.68139L20.4382 6.88151C22.9021 11.6543 25.2852 16.5271 27.5068 21.2999L27.5371 21.3299C27.7996 21.8502 28.0218 22.4305 28.2742 22.9308C28.4358 23.321 28.5974 23.6312 28.6983 23.9614C28.8902 24.8619 28.9912 25.6624 28.8902 26.4628ZM42.9467 24.7619C42.1858 24.7729 41.4321 24.614 40.7416 24.297C40.0511 23.9801 39.4415 23.5131 38.958 22.9308C37.8715 21.69 37.2948 20.0902 37.3423 18.4482C37.3256 16.7704 37.9209 15.1431 39.0185 13.8656C39.5263 13.2758 40.1583 12.8036 40.8701 12.482C41.582 12.1605 42.3563 11.9975 43.1385 12.0045C43.8746 11.9845 44.6037 12.1504 45.2573 12.4864C45.9109 12.8225 46.4675 13.3177 46.8748 13.9256L46.9758 12.3547H49.9244V24.4417H46.9657L46.8647 22.6807C46.4448 23.3297 45.8644 23.8616 45.1787 24.2258C44.493 24.5901 43.7246 24.7746 42.9467 24.7619ZM43.7141 21.8802C44.2998 21.8802 44.8148 21.7201 45.2995 21.4299C45.7438 21.1097 46.1074 20.6895 46.3901 20.1792C46.6426 19.6689 46.7738 19.0586 46.7738 18.3782C46.8132 17.7872 46.6971 17.1963 46.4369 16.6631C46.1767 16.1299 45.7813 15.6728 45.2894 15.3364C44.8168 15.0446 44.271 14.8899 43.7141 14.8899C43.1572 14.8899 42.6115 15.0446 42.1388 15.3364C41.6945 15.6566 41.331 16.0768 41.0482 16.5871C40.7812 17.1499 40.6498 17.7665 40.6645 18.3882C40.6252 18.9791 40.7412 19.5701 41.0014 20.1032C41.2616 20.6364 41.657 21.0935 42.1489 21.4299C42.6235 21.7201 43.1385 21.8802 43.7141 21.8802ZM54.9734 9.09279C54.9734 9.44299 54.9129 9.76318 54.7513 10.0233C54.5897 10.2735 54.3676 10.5036 54.0747 10.6637C53.7819 10.8238 53.4688 10.8838 53.1457 10.8838C52.8226 10.8838 52.4994 10.8238 52.2066 10.6637C51.9296 10.5109 51.6967 10.2905 51.53 10.0233C51.3736 9.73829 51.2969 9.41704 51.3079 9.09279C51.3079 8.73258 51.3785 8.41239 51.53 8.16225C51.6916 7.86208 51.9238 7.68197 52.2066 7.52188C52.4994 7.36179 52.8125 7.29175 53.1457 7.29175C53.4671 7.28441 53.785 7.35984 54.0682 7.51067C54.3514 7.6615 54.5902 7.88256 54.7614 8.15224C54.9083 8.44396 54.9811 8.76684 54.9734 9.09279ZM51.5401 24.4017V12.3347H54.7513V24.4217H51.53L51.5401 24.4017ZM63.3346 15.4965V15.5365C63.1831 15.4665 62.9812 15.4365 62.8297 15.4064C62.6278 15.3664 62.4662 15.3664 62.2743 15.3664C61.3756 15.3664 60.699 15.6266 60.2547 16.1669C59.77 16.7172 59.5479 17.4876 59.5479 18.4782V24.4117H56.3266V12.3247H59.2853L59.3863 14.1557C59.7094 13.5153 60.0931 13.0351 60.6384 12.6749C61.1808 12.3249 61.8194 12.1501 62.4662 12.1746C62.6984 12.1746 62.9206 12.1946 63.1125 12.2346C63.2134 12.2646 63.274 12.2646 63.3346 12.2946V15.4965ZM64.6272 24.4017V7.37179H67.8383V13.8756C68.2928 13.2952 68.8078 12.845 69.454 12.4948C70.4772 11.9977 71.6395 11.8567 72.7534 12.0945C73.8673 12.3323 74.8679 12.9351 75.5936 13.8055C76.6825 15.0488 77.2593 16.6527 77.2093 18.2981C77.226 19.9759 76.6307 21.6032 75.533 22.8808C75.0253 23.4705 74.3933 23.9428 73.6815 24.2643C72.9696 24.5858 72.1953 24.7489 71.4131 24.7418C70.677 24.7618 69.9479 24.596 69.2943 24.2599C68.6407 23.9238 68.0841 23.4286 67.6768 22.8207L67.5758 24.3916L64.6272 24.4217V24.4017ZM70.8375 21.8802C71.4131 21.8802 71.928 21.7201 72.4128 21.4299C72.8571 21.1097 73.2206 20.6895 73.5033 20.1792C73.7659 19.6689 73.8871 19.0586 73.8871 18.3782C73.8871 17.7078 73.7659 17.0974 73.5033 16.5871C73.2382 16.0951 72.8656 15.6678 72.4128 15.3364C71.9401 15.0446 71.3944 14.8899 70.8375 14.8899C70.2806 14.8899 69.7348 15.0446 69.2622 15.3364C68.8078 15.6566 68.4543 16.0768 68.1615 16.5871C67.8944 17.1499 67.7631 17.7665 67.7778 18.3882C67.7384 18.9791 67.8545 19.5701 68.1147 20.1032C68.3749 20.6364 68.7702 21.0935 69.2622 21.4299C69.7368 21.7201 70.2518 21.8802 70.8375 21.8802ZM78.4211 24.4117V12.3247H81.3798L81.4808 13.8956C81.8526 13.2934 82.38 12.8006 83.0085 12.4681C83.637 12.1357 84.3437 11.9756 85.0555 12.0045C85.8695 11.9905 86.6696 12.2147 87.3557 12.649C88.0418 13.0832 88.5835 13.7082 88.9129 14.4459C89.2664 15.2063 89.4582 16.1469 89.4582 17.1975V24.4417H86.237V17.6177C86.237 16.7772 86.0451 16.1169 85.6614 15.6266C85.2776 15.1463 84.7526 14.8861 84.0861 14.8861C83.6014 14.8861 83.1773 14.9862 82.8036 15.2063C82.4502 15.4365 82.1574 15.7266 81.9352 16.1369C81.7106 16.5516 81.5992 17.0172 81.6121 17.4876V24.4117H78.4211ZM91.0638 24.4117V7.36179H94.2851V13.8656C94.7214 13.282 95.289 12.8072 95.9428 12.4789C96.5967 12.1507 97.3187 11.9779 98.0517 11.9745C98.8126 11.9634 99.5663 12.1223 100.257 12.4393C100.947 12.7563 101.557 13.2232 102.04 13.8055C103.122 15.0488 103.694 16.6477 103.646 18.2881C103.664 19.966 103.068 21.5936 101.97 22.8708C101.462 23.4605 100.83 23.9327 100.118 24.2543C99.4063 24.5758 98.632 24.7388 97.8497 24.7318C97.1136 24.7518 96.3845 24.586 95.7309 24.2499C95.0773 23.9138 94.5207 23.4186 94.1134 22.8107L94.0226 24.3816L91.0638 24.4117ZM97.3044 21.8802C97.8901 21.8802 98.4051 21.7201 98.8797 21.4299C99.3341 21.1097 99.6876 20.6895 99.9804 20.1792C100.233 19.6689 100.364 19.0586 100.364 18.3782C100.403 17.7872 100.287 17.1963 100.027 16.6631C99.767 16.1299 99.3716 15.6728 98.8797 15.3364C98.4071 15.0446 97.8613 14.8899 97.3044 14.8899C96.7475 14.8899 96.2018 15.0446 95.7291 15.3364C95.2848 15.6566 94.9213 16.0768 94.6385 16.5871C94.3567 17.1449 94.2245 17.7651 94.2548 18.3882C94.2154 18.9791 94.3315 19.5701 94.5917 20.1032C94.8519 20.6364 95.2473 21.0935 95.7392 21.4299C96.2138 21.7201 96.6985 21.8802 97.3044 21.8802Z" fill="#FF385C"/>
</svg>
